<svg xmlns="http://www.w3.org/2000/svg" width="1440" height="1863" fill="none" viewBox="0 0 1440 1863">
    <g fill-rule="evenodd" stroke="#224A5D" stroke-opacity=".42" clip-rule="evenodd" opacity=".5">
        <path d="M853.712 715.551c22.576 16.386 26.472 50.776 35.857 79.327 8.735 26.567 17.578 52.436 16.792 80.797-.928 33.39 1.817 74.569-21.66 94.623-23.647 20.202-56.932-3.691-86.454-2.264-26.718 1.283-55.636 27.244-77.756 10.156-22.358-17.269-11.585-58.009-21.334-86.7-8.991-26.46-35.653-45.65-33.235-73.897 2.448-28.671 26.031-48.009 45.245-66.76 18.755-18.304 39.354-33.386 63.487-39.359 26.429-6.547 56.262-12.47 79.058 4.077z" opacity=".3"/>
        <path d="M888.93 631.96c36.471 26.472 42.832 81.875 58.046 127.899 14.157 42.824 28.486 84.522 27.279 130.211-1.42 53.788 3.101 120.14-34.744 152.37-38.121 32.48-91.893-6.1-139.54-3.91-43.119 1.99-89.732 43.73-125.473 16.14-36.12-27.89-18.821-93.486-34.623-139.736-14.569-42.652-57.634-73.644-53.804-119.142 3.888-46.18 41.907-77.267 72.874-107.42 30.228-29.432 63.441-53.669 102.368-63.218 42.652-10.461 90.787-19.916 127.617 6.806z" opacity=".3"/>
        <path d="M923.046 550.982c49.933 36.224 58.684 112.004 79.534 174.954 19.42 58.574 39.07 115.608 37.45 178.082-1.9 73.549 4.34 164.282-47.423 208.322-52.141 44.36-125.759-8.45-190.964-5.5-59.006 2.67-122.761 59.7-171.694 21.93-49.454-38.17-25.84-127.85-47.498-191.112-19.973-58.342-78.934-100.764-73.729-162.973 5.282-63.145 57.284-105.611 99.639-146.812 41.342-40.214 86.772-73.319 140.045-86.339 58.35-14.254 124.217-27.131 174.64 9.448z" opacity=".3"/>
        <path d="M953.863 477.843c62.097 45.041 73.007 139.215 98.957 217.452 24.14 72.796 48.6 143.677 46.62 221.32-2.34 91.395 5.46 204.145-58.88 258.855-64.801 55.1-156.346-10.57-237.407-6.93-73.356 3.29-152.596 74.12-213.446 27.16-61.495-47.45-32.176-158.89-59.127-237.515-24.852-72.504-98.169-125.258-91.725-202.562 6.535-78.472 71.174-131.216 123.814-182.4 51.38-49.952 107.848-91.068 174.072-107.218 72.535-17.68 154.417-33.646 217.122 11.838z" opacity=".3"/>
        <path d="M982.478 409.927c73.372 53.231 86.282 164.483 116.982 256.917 28.57 86.009 57.46 169.758 55.15 261.469-2.74 107.977 6.5 241.167-69.52 305.777-76.55 65.07-184.748-12.54-280.535-8.26-86.681 3.86-180.298 87.51-252.212 32.02-72.683-56.08-38.06-187.72-69.929-280.612-29.379-85.659-116.033-148.003-108.438-239.324 7.711-92.693 84.074-154.983 146.264-215.428 60.702-58.995 127.417-107.551 205.668-126.61 85.71-20.864 182.464-39.7 256.57 14.051z" opacity=".3"/>
        <path d="M1012.19 339.396c85.11 61.732 100.09 190.726 135.71 297.9 33.13 99.726 66.66 196.832 63.98 303.164-3.15 125.18 7.6 279.62-80.53 354.5-88.78 75.43-214.261-14.57-325.338-9.64-100.518 4.46-209.066 101.42-292.471 37.07-84.292-65.05-44.17-217.66-81.14-325.362-34.092-99.323-134.584-171.63-125.796-277.502 8.929-107.466 97.472-179.667 169.579-249.728 70.387-68.385 147.738-124.666 238.479-146.742 99.387-24.179 211.583-45.997 297.527 16.34z" opacity=".3"/>
        <path d="M1048.5 253.195c99.45 72.122 116.98 222.796 158.59 347.99 38.73 116.492 77.92 229.922 74.81 354.121-3.66 146.214 8.92 326.604-94.04 414.054-103.7 88.09-250.301-17.06-380.069-11.33-117.431 5.19-244.226 118.42-341.676 43.24-98.484-75.99-51.634-254.24-94.844-380.05-39.846-116.025-157.258-200.498-147.004-324.165 10.405-125.524 113.844-209.839 198.067-291.659 82.214-79.861 172.576-145.583 278.581-171.35 116.106-28.221 247.176-53.681 347.585 19.149z" opacity=".3"/>
        <path d="M1088.12 159.156c115.07 83.459 135.39 257.784 183.56 402.635 44.82 134.781 90.19 266.02 86.6 409.712-4.22 169.167 10.36 377.867-108.76 479.027-119.98 101.89-289.631-19.79-439.788-13.18-135.878 5.99-282.582 136.98-395.354 49.97-113.967-87.93-59.783-294.15-109.795-439.72-46.12-134.233-181.993-231.984-170.143-375.06 12.027-145.223 131.696-242.755 229.148-337.4 95.121-92.382 199.674-168.407 322.33-198.187 134.343-32.64 286.001-62.074 402.202 22.203z" opacity=".3"/>
        <path d="M1126.63 67.73c130.28 94.49 153.3 291.807 207.83 455.759 50.76 152.558 102.12 301.112 98.08 463.761-4.75 191.48 11.76 427.71-123.07 542.19-135.81 115.32-327.871-22.44-497.848-14.97-153.818 6.76-319.876 155-447.542 56.51-129.022-99.55-67.704-332.95-124.332-497.72-52.221-151.948-206.039-262.609-192.64-424.553 13.602-164.375 149.06-274.756 259.363-381.871 107.67-104.555 226.017-190.59 364.862-224.298C823.414 5.621 995.086-27.677 1126.63 67.73z" opacity=".3"/>
        <path d="M1161.86-15.86c144.17 104.558 169.65 322.9 230.01 504.331 56.17 168.822 113.04 333.205 108.57 513.179-5.25 211.87 13.03 473.27-136.16 599.94-150.29 127.59-362.83-24.86-550.933-16.61-170.218 7.47-353.97 171.49-495.255 62.49-142.785-110.16-74.944-368.43-137.623-550.76-57.8-168.136-228.026-290.598-213.208-469.793 15.04-181.887 164.933-304.014 286.996-422.531C373.4 88.701 504.359-6.49 658.007-43.783c168.289-40.83 358.273-77.66 503.853 27.922z" opacity=".3"/>
        <path d="M1199.27-104.675c158.94 115.264 187.03 355.943 253.59 555.938 61.95 186.093 124.62 367.29 119.71 565.677-5.77 233.54 14.41 521.69-150.06 661.3-165.66 140.63-399.97-27.42-607.325-18.34-187.642 8.21-390.191 189-545.951 68.84-157.409-121.44-82.638-406.13-151.743-607.1-63.731-185.35-251.39-320.353-235.067-517.878 16.57-200.489 181.803-335.098 316.351-465.731 131.333-127.5 275.689-232.427 445.068-273.513 185.514-45.003 394.947-85.588 555.427 30.807z" opacity=".3"/>
        <path d="M1239.99-201.326c175 126.917 205.96 391.904 279.25 612.101 68.2 204.892 137.23 404.4 131.84 622.815-6.35 257.13 15.88 574.37-165.19 728.08-182.4 154.82-440.4-30.23-668.713-20.24-206.607 9.03-429.627 208.06-601.123 75.75-173.32-133.72-91.009-447.14-167.108-668.43-70.177-204.056-276.808-352.709-258.844-570.182C-191.665 357.832-9.744 209.641 138.397 65.824 282.998-74.552 441.94-190.056 628.43-235.288c204.258-49.529 434.86-94.198 611.56 33.962z" opacity=".3"/>
    </g>
</svg>
